<?xml version="1.0" encoding="utf-8"?>
<!-- Generator: Adobe Illustrator 25.4.2, SVG Export Plug-In . SVG Version: 6.00 Build 0)  -->
<svg version="1.1" id="Layer_1" xmlns="http://www.w3.org/2000/svg" xmlns:xlink="http://www.w3.org/1999/xlink" x="0px" y="0px"
	 viewBox="0 0 1000 361" style="enable-background:new 0 0 1000 361;" xml:space="preserve">
<style type="text/css">
	.st0{fill:#CDCDCD;}
</style>
<path class="st0" d="M363.52,154.25c4.12,0.23,5.64-2.05,7.39-5.39c3.04-5.82,7.4-10.93,10.81-16.58
	c8.15-13.53,16.13-27.16,24.06-40.83c2.55-4.4,4.77-9.01,7.04-13.56c0.87-1.73,1.68-3.53,2.17-5.4c1.33-5.03,1.26-5.05,7.12-3.18
	c2.49-6.63,5.53-13.19,7.37-20.06c1.67-6.26,3.08-12.47,8.23-16.79c1.81-1.51,4.39-2.1,6.62-3.1c0.26,0.4,0.52,0.81,0.78,1.21
	c-0.84,1.25-1.67,2.51-2.51,3.76c3.32,2.13,4.77,4.85,5.79,8.92c1.89,7.52-1.82,11.1-6.45,15.84c-4,4.1-6.04,10.19-8.52,15.6
	c-0.32,0.71,1.74,2.8,3.01,3.89c4.14,3.55,3.71,3.89-0.43,7.07c-3.6,2.76-6.86,6.54-8.96,10.55c-5.42,10.33-10.26,20.98-15.04,31.63
	c-1.57,3.5-2.19,7.42-3.35,11.12c-1.56,4.99-3.18,9.95-4.82,14.91c-2.26,6.85-7.22,11.71-12.02,16.8
	c-3.97,4.22-6.76,9.14-8.63,14.91c-1.61,4.97-5.57,9.18-8.56,13.69c-1,1.51-1.96,3.16-3.32,4.28c-5.22,4.3-4.85,9.34-1.88,15.66
	c4.58-9.14,8.91-17.8,13.46-26.9c0.52,0.06,1.69,0.21,3.66,0.46c1.75-5.02,3.86-10.12,5.26-15.42c1.13-4.29,2.71-8.19,6.03-11.12
	c1.03-0.9,2.75-1.02,5.01-1.79c-0.86,1.7-1.29,2.57-1.74,3.45c5.99,4.73,5.81,12.64-0.23,17.61c-3.09,2.54-4.55,7.17-6.39,11.02
	c-0.28,0.59,1.13,2.3,2.09,3.11c2.18,1.84,2.58,2.73-0.14,4.97c-3.47,2.86-5.97,6.88-8.88,10.39c9.39,5.59,17.24,11.14,21.84,19.62
	c0.68-4.54,0.65-9.68,2.31-14.21c3.05-8.33,7.11-16.28,10.71-24.41c1.35-3.04,2.22-6.38,4-9.14c2.37-3.7,5.47-6.93,8.14-10.44
	c1.37-1.79,2.5-3.76,4.06-6.14c1.35,2.68,1.3,6.95,6.25,4c-2.99-6.41-6.01-12.87-9.57-20.48c1.98,1.11,2.82,1.57,4,2.24
	c-1.27-3.21-2.43-6.15-3.59-9.09c0.61-0.32,1.21-0.65,1.82-0.97c2.84,4.68,5.67,9.36,8.51,14.04c0.2-0.09,0.41-0.19,0.61-0.28
	c-1.52-4.42-3.04-8.84-4.56-13.26c0.45-0.19,0.9-0.39,1.35-0.58c4.67,3.31,4.79,9.45,8.77,13.77c0-3.2,0-6.4,0-9.6
	c0.42-0.05,0.83-0.09,1.25-0.14c0.41,0.95,1,1.87,1.19,2.86c1.02,5.32,1.85,10.69,2.94,16c0.69,3.33,1.42,6.71,2.69,9.85
	c4.22,10.43,5.93,21.41,7.54,32.42c0.22,1.5,0.52,2.99,0.82,4.7c3.84,0.13,6.63-0.36,8.72-4.43c4.37-8.53,9.38-16.64,11.65-26.19
	c0.73-3.1,3.91-5.71,6.21-8.33c1.82-2.07,4-3.81,5.77-5.46c1.61,1.08,2.97,2.08,4.41,2.93c2.77,1.62,2.03,9.65-1.14,11.55
	c-0.83,0.5-1.82,1.23-2.65,1.13c-5.72-0.66-6.75,3.44-7.52,7.47c-1.48,7.72-2.66,15.5-4.07,23.87c2.99-1.83,5.13-3.36,7.46-4.53
	c6.62-3.32,12.19-2.49,17.48,2.73c4.33,4.27,6.86,9.34,6.43,15.69c-0.15,2.16,0.42,4.37,0.69,6.55c0.13,1.1,0.86,2.53,0.41,3.22
	c-3.65,5.64-0.37,10.69,1.38,16.29c-1.23-0.68-2.11-1.16-3.29-1.8c2.1,6.29,9.75,10.29,18.99,10.05c1.31-5.82,2.68-11.75,3.93-17.7
	c0.14-0.67-0.18-1.69-0.66-2.19c-9.29-9.59-14.07-21.66-17.93-34.01c-5.8-18.57-11.01-37.33-16.27-56.07
	c-0.76-2.72-0.42-5.77-0.48-8.68c-0.04-2.05,1.38-4.56-2.06-5.33c-0.32-0.07-0.63-0.88-0.68-1.38c-0.45-3.88,2.37-5.53,5.19-6.67
	c2.4-0.97,5.15-1.4,6.84,1.74c2.75,5.09,5.77,9.68,3.31,16.26c-2.4,6.41-1.12,13.19,2.18,19.38c6.54,12.27,12.56,24.86,19.81,36.69
	c3.31,5.4,8.87,9.5,13.73,13.83c3.25,2.89,7.06,5.14,10.62,7.68c0.42-0.21,0.84-0.41,1.26-0.62c-0.59-2.84-0.61-5.97-1.89-8.46
	c-2.29-4.45-4.34-8.37-1.76-13.64c1.85-3.77,1.67-8.55,3.59-12.27c4.22-8.17,8.86-13.35,21.61-8.22c4.49,1.81,7.7,3.59,9.66,8
	c1.9,4.27,2.26,8.31,1.12,12.92c-1.13,4.59-0.83,9.53-1.78,14.19c-0.93,4.6-2.64,9.04-4.1,13.87c9.64,2.91,19.28,5.82,28.22,8.52
	c-2.23-2.79-2.98-6.55-0.93-11.15c1.04-2.33,0.11-5.49,0.29-8.26c0.51-7.68,4.83-12.75,13.75-15.34c6.25-1.81,11.16,1.34,15.07,5.84
	c3.56,4.1,5.73,8.85,4.89,14.56c-0.2,1.34-0.23,2.87,0.21,4.12c1.05,3,1.47,5.68-0.23,8.76c-0.78,1.42-0.16,3.8,0.24,5.65
	c0.49,2.27,1.42,4.44,2.27,6.99c-1.22-0.62-2.04-1.04-3.17-1.62c1.96,5.61,8.6,9.6,16.42,9.52c-2.63-3.59-4.66-6.81-7.15-9.62
	c-1.65-1.87-2.26-3.36-1.6-5.92c0.62-2.4,0.81-5.29,0.07-7.61c-7.17-22.34-12.1-45.08-13.31-68.58c-0.33-6.44-1.66-12.82-2.14-19.25
	c-0.35-4.62-0.07-9.29-0.07-13.93c0.44-0.04,0.88-0.08,1.32-0.12c0.7,2.85,1.4,5.69,2.2,8.91c2.65-5.54-1.31-11.92,3.02-16.63
	c0.53-0.04,1.07-0.08,1.6-0.12c0.81,5.46,2.79,11.06,2.2,16.36c-1.76,15.79,0.6,30.69,6.77,45.2c3.15,7.41,5.75,14.87,6.42,23.16
	c0.46,5.6,3.37,11.09,5.66,16.43c1.77,4.15,4.27,7.99,6.44,11.96c0.42-0.08,0.84-0.15,1.26-0.23c0-1.41,0.02-2.81,0-4.22
	c-0.19-10.64,7.32-17.42,17.9-16.17c7.01,0.83,13.46,6.98,13.92,13.95c0.24,3.66-0.64,7.39-0.85,11.09
	c-0.08,1.4,0.28,2.83,0.44,4.24c0.41,0,0.82,0,1.22-0.01c1.04-4.35,2.08-8.7,3.14-13.05c3.04-12.54,6.03-25.1,9.18-37.61
	c1.32-5.25,3.36-10.35,4.35-15.66c0.55-2.95-0.01-6.27-0.71-9.27c-1.25-5.33-3-10.55-4.54-15.82c0.45-0.24,0.89-0.48,1.34-0.72
	c1.5,2.49,3,4.98,4.75,7.88c6.01-4.65,3.39-12.66,6.7-18.15c0.45,0.08,0.9,0.15,1.35,0.23c-0.31,4.14-0.62,8.28-0.92,12.43
	c0.35,0.1,0.7,0.2,1.05,0.29c1.18-4.02,2.35-8.05,3.53-12.07c0.49,0.06,0.98,0.12,1.47,0.18c-0.17,1.97-0.25,3.94-0.54,5.89
	c-0.31,2.04-0.83,4.04-0.64,6.27c1.29-3.32,2.57-6.63,3.86-9.95c0.46,0.1,0.93,0.2,1.39,0.3c-0.48,2.27-0.83,4.58-1.47,6.81
	c-0.66,2.32-1.58,4.57-1.61,7.26c1.48-2.31,2.95-4.62,4.43-6.93c0.33,0.14,0.67,0.28,1,0.43c-0.41,1.3-0.68,2.67-1.25,3.89
	c-1.59,3.4-3.13,6.84-5.01,10.07c-4.35,7.51-5.8,15.75-6.89,24.19c-0.7,5.35-1.53,10.79-3.26,15.87c-3.2,9.41-3.88,18.82-3.08,28.69
	c0.62,7.67-1.23,15.58-0.28,23.17c0.98,7.84-2.41,14.13-5.1,21.83c5.81-1.17,10.86-2.2,16.35-3.31c-2.03-5.38-0.66-10.99-4.35-15.76
	c-1.31-1.7-0.33-5.21-0.29-7.9c0.02-1.62,0.4-3.25,0.36-4.87c-0.25-10.08,2.75-14.83,11.31-18.92c4.85-2.32,9.27-1.76,13.42,1.03
	c6.29,4.23,9.86,10.05,9.35,17.94c-0.11,1.64-0.19,3.41,0.3,4.94c0.92,2.9,1.2,5.43-0.37,8.35c-0.78,1.44-0.18,3.8,0.22,5.64
	c0.51,2.28,1.46,4.47,2.37,7.11c-1.23-0.68-2.12-1.18-3.01-1.67c-0.22,0.21-0.43,0.42-0.65,0.63c1.15,1.58,2.29,3.16,3.96,5.45
	c0.26-1.66,0.55-2.51,0.5-3.34c-0.44-7.35-1.34-14.71-1.31-22.06c0.02-5.34,1.15-10.7,1.93-16.02c2.2-14.94,4.5-29.87,6.71-44.81
	c0.16-1.08,0.23-2.36-0.21-3.3c-1.91-4.07-1.5-6.29,3.75-5.76c0.67,0.07,1.87-1.46,2.21-2.46c0.85-2.49,1.5-5.08,1.96-7.67
	c0.97-5.41,3.17-9.63,8.26-12.63c3.66-2.16,6.42-5.84,9.63-8.79c0.83-0.77,1.83-1.35,3.21-2.36c0.86,4.61,1.59,8.46,2.29,12.32
	c0.41,2.29-0.43,3.77-2.81,4.26c-0.81,0.17-1.58,0.62-2.4,0.71c-7.66,0.85-10.83,5.47-10.48,12.76c0.08,1.64,1.11,3.23,1.73,4.84
	c0.24,0.62,0.82,1.25,0.75,1.81c-1.63,12.16-3.61,24.29-4.93,36.48c-1.06,9.78-1.54,19.64-1.84,29.48
	c-0.11,3.57,0.87,7.22,1.72,10.75c0.56,2.31,1.65,4.54,2.81,6.63c0.37,0.67,1.75,0.78,1.77,0.79c-0.21-6.37-1.66-12.91-0.29-18.78
	c1.43-6.12,5.01-12.01,8.69-17.27c6.56-9.4,20.97-6,25.12,1.14c2.35,4.05,4.36,8.38,5.94,12.8c2.19,6.13,3.82,12.46,6,19.73
	c1.81-1.39,3.74-2.24,4.71-3.72c4.07-6.24,7.86-12.65,11.73-19.02c5.11-8.42,10.43-16.72,15.2-25.34
	c3.05-5.52,5.12-11.59,7.98-17.23c0.5-0.99,2.74-1.11,4.17-1.64c0.3,0.3,0.59,0.6,0.89,0.9c1.91-5.16,4.1-10.24,5.66-15.51
	c1.26-4.27,1.86-8.77,5.56-11.78c1.57-1.27,3.45-2.15,5.2-3.21c0.26,0.32,0.51,0.64,0.77,0.97c-0.47,0.88-0.94,1.76-1.41,2.65
	c5.95,4.61,6.82,13.33-0.23,18.99c-3.3,2.65-4.79,7.64-6.83,11.71c-0.29,0.58,0.79,2.16,1.59,2.9c3.69,3.44,3.5,3.16-0.24,6.17
	c-2.51,2.02-4.7,4.73-6.29,7.56c-3.06,5.45-5.54,11.22-8.35,16.81c-0.94,1.86-0.73,3.08,0.83,4.67c4.36,4.44,6.95,9.65,6.02,16.18
	c-0.21,1.45,0.42,3.01,0.39,4.51c-0.03,2.49-0.33,4.98-0.42,7.47c-0.06,1.91-0.25,3.88,0.12,5.73c0.46,2.28,1.43,4.46,2.41,7.36
	c-1.2-0.7-1.89-1.09-2.58-1.49c-0.31,0.29-0.62,0.57-0.93,0.86c1.49,1.64,2.68,3.98,4.54,4.76c4.54,1.93,9.32,3.39,14.12,4.57
	c4.04,0.99,8.25,1.22,12.36,1.95c4.32,0.77,6.52,3.46,6.5,7.87c-0.01,2.5-0.08,5.01-0.14,7.51c-0.18,7.23,2.04,13.5,7.11,18.79
	c2.56,2.67,4.41,6.21,7.36,8.24c2.66,1.84,6.37,2.16,9.61,3.15c0.88,0.27,2.04,0.26,2.61,0.84c4.64,4.62,10.46,2.64,15.86,2.96
	c0.48,0.03,1.03-0.35,1.48-0.64c4.65-2.91,9.25-5.9,13.97-8.69c0.88-0.52,2.22-0.28,3.35-0.39c-0.34,1.22-0.4,2.66-1.11,3.62
	c-0.85,1.15-2.26,1.88-3.62,2.94c3.84,0.83,7.4,1.61,10.96,2.38c-0.02,0.44-0.05,0.88-0.07,1.33c-0.91,0.75-1.83,1.5-2.75,2.26
	c0.03,0.23-0.03,0.55,0.1,0.74c0.64,0.95,1.33,1.86,2.01,2.78c-1.11,0.35-2.22,1-3.33,1.01c-23.12,0.06-46.25,0-69.37,0.11
	c-2.62,0.01-3.76-1.09-4.57-3.25c-0.83-2.19-1.82-4.31-2.81-6.63c-2.08,0.62-3.85,1.14-5.65,1.68c-0.08,0.25-0.22,0.5-0.24,0.76
	c-0.52,7.32-0.57,7.37-7.75,7.37c-185.83,0-371.67,0-557.5,0c-114.23,0-228.45,0-342.68,0c-1.76,0-3.52,0-5.27,0
	c-0.03-0.2-0.07-0.39-0.1-0.59c8.38-3.51,16.7-7.19,25.18-10.44c2.93-1.12,5.06-2.68,5.38-5.66c0.6-5.63,1.66-11.44,0.89-16.95
	c-1.26-8.99,1.65-15.77,8.16-21.48c3.35-2.93,6.47-6.26,10.21-8.58c5.05-3.13,8.01-6.72,5.68-13.25c5.46-1.22,10.52-2.35,15.65-3.49
	c-0.76-4.35-1.26-8.4-2.24-12.33c-0.54-2.18-2.82-4.22-2.7-6.22c0.4-6.68,0.58-13.62,2.6-19.9c3.22-9.99,17.28-13.23,25.19-6.35
	c5.07,4.41,7.95,9.93,7.14,16.96c-0.18,1.6,0.43,3.28,0.44,4.92c0,2.37-0.26,4.73-0.33,7.1c-0.07,2.04-0.33,4.14,0.04,6.11
	c0.42,2.29,1.43,4.47,2.42,7.4c-1.29-0.83-2.03-1.32-3.51-2.28c1.69,6.38,6.66,7.75,10.9,9.44c3.61,1.44,7.51,2.01,11.62,0.38
	c2.69-1.07,5.97-1.17,8.93-0.96c7.43,0.54,8.52-0.49,7.2-8.44c-1.07,0.64-2.02,1.22-2.46,1.48c0.61-2.81,1.31-6.02,1.94-8.93
	c-1.18-0.73-1.92-1.18-2.66-1.64c0.1-0.46,0.19-0.92,0.29-1.38c-1.79,0.89-3.57,1.78-5.36,2.67c-0.16-0.19-0.32-0.39-0.49-0.58
	c1.57-1.09,3.23-2.07,4.69-3.29c1.25-1.05,3.33-2.59,3.15-3.55c-0.27-1.46-2.19-2.61-3.07-3.53c0.41,0,1.71,0,2.95,0
	c3.47-10.3-1.53-19.65-2.81-29.35c-0.63-4.8-1.63-9.55-2.13-14.36c-0.65-6.29-0.96-12.62-1.46-19.58c3.16-1.32,1.84-4.33-0.07-6.75
	c-3.49-4.43-7.39-8.54-11.16-12.74c-0.79-0.88-1.78-1.6-2.68-2.39c0.22-0.41,0.43-0.82,0.65-1.23c2.51,1.17,5.02,2.35,8.71,4.07
	c-2.67-4.12-4.76-7.36-7.36-11.37c5.22-0.51,6.01,4.24,9.39,5.82c-1.25-3.11-2.35-5.88-3.46-8.64c0.58-0.33,1.16-0.66,1.74-0.99
	c2.88,4.3,5.75,8.61,8.63,12.91c0.43-0.08,0.87-0.16,1.3-0.24c0.18-3.84,0.36-7.68,0.53-11.53c0.6-0.05,1.19-0.1,1.79-0.15
	c0.48,1.57,1.15,3.11,1.41,4.72c0.55,3.43,0.51,7.01,1.46,10.3c0.55,1.88,2.4,3.59,4.08,4.79c0.37,0.27,2.43-2.1,3.87-2.99
	c1.25-0.78,2.73-1.18,4.1-1.76c-0.47,1.26-0.75,2.63-1.43,3.76c-2.29,3.76-4.73,7.44-7.08,11.16c-0.22,0.34-0.42,0.81-0.36,1.18
	c1.84,12.38,3.71,24.75,5.68,37.76c8.66-7.41,8.66-7.41,16.45-7.14c0.21-3.69,0.48-7.4,0.59-11.11c0.02-0.72-0.43-2-0.86-2.09
	c-2.68-0.56-2.81-2.89-1.84-4.11c1.63-2.05,3.93-3.89,6.33-4.87c1.29-0.53,4.21,0.39,4.98,1.58c3.19,4.93,6.77,9.84,3.72,16.46
	c-3.05,6.6,0.28,11.54,5.31,15.52c5.11,4.05,6.23,9.49,6.43,15.57c0.11,3.41,1.05,6.78,1.62,10.16c5.77-2.21,10.54-3.95,15.23-5.91
	c1.18-0.49,2.12-1.62,3.11-2.52c1.33-1.2,2.4-3.07,3.93-3.56c4.37-1.41,6.71-4.77,8.98-8.26c0.68-1.05,1.07-2.5,1.06-3.76
	c-0.07-10.98-0.39-21.97-0.39-32.95c0-6.79,0.93-13.62,0.47-20.36c-0.26-3.83-2.36-7.58-3.9-11.25c-1.36-3.27-3.08-6.38-3.91-10.06
	c0.79,0.39,1.58,0.78,2.69,1.33c-1.19-3.08-2.28-5.92-3.37-8.76c0.43-0.22,0.86-0.45,1.28-0.67c4.49,3.44,5.53,9.46,9.61,13.43
	c-1.52-4.37-3.04-8.75-4.56-13.12c0.46-0.21,0.92-0.43,1.38-0.64c4.68,3.3,4.84,9.5,8.64,13.8c0-3.16,0-6.33,0-9.49
	c0.42-0.09,0.84-0.18,1.25-0.27c0.51,1.24,1.22,2.44,1.49,3.74c0.88,4.22,1.99,8.44,2.27,12.71c0.33,5.09,1.96,9.65,3.82,14.29
	c5.49,13.73,6.69,28.39,8.42,42.86c0.44,3.69-1.44,7.8-2.82,11.5c-1.14,3.08-3.1,5.86-4.83,9.01c3.83,1.4,7.35,2.68,10.31,3.76
	c0-1.86-0.42-3.54,0.07-4.89c3.45-9.65,7.42-19.14,10.51-28.9c1.29-4.07,0.56-8.74,1.19-13.08c0.94-6.43,1.49-13.06,3.6-19.13
	c3.49-10.05,3.02-20.2,2.55-30.42c-0.36-7.78-1.62-15.55-1.62-23.32c0-6.18,0.27-12.73,2.27-18.46c3.05-8.73,2.85-17.79,4.57-26.62
	c1.25-6.41,1.9-12.94,3.08-19.36c1.39-7.55,2.64-15.02-0.24-22.54c-0.93-2.42,0.66-3.51,2.86-3.12c4.81,0.85,6.44-1.69,7.08-5.86
	c0.37-2.46,1.42-4.83,1.73-7.3c1.04-8.36,5.33-13.97,12.78-18.07c4.01-2.21,6.88-6.48,10.3-9.78c1.27-1.22,2.65-2.33,4.53-3.97
	c1.18,6.14,2.1,11.08,3.07,16.01c0.64,3.25-0.3,5.3-3.81,6.13c-3.51,0.83-7.17,1.65-10.29,3.33c-2.16,1.17-4.2,3.55-5.06,5.85
	c-1.15,3.05-1.12,6.55-1.55,9.86c-0.25,1.94-0.47,3.73,2.13,4.64c0.68,0.24,1.02,2.5,0.88,3.77c-0.26,2.3-1.28,4.52-1.51,6.83
	c-0.97,9.99-1.65,20.02-2.68,30c-0.75,7.3-2.1,14.54-2.79,21.84c-0.76,8.13-1.11,16.31-1.55,24.47c-0.07,1.36,0.17,2.78,0.48,4.12
	c0.93,4.15,1.97,8.28,2.02,12.55c1.34,1.18,2.68,2.35,4.58,4.02c0.23-1.21,0.77-2.29,0.56-3.18c-3.77-15.53,2.64-27.99,11.81-39.63
	c8.74-11.11,26.82-7.71,32.54,1.81c3.4,5.66,6.07,11.86,8.32,18.09C359.21,138.42,361.15,146.27,363.52,154.25z M443.68,222.11
	c0-12.19,0-24.27,0-36.51c-6.61,1.81-11.16,4.75-11.71,11.81c-0.18,2.29-1.53,4.47-2.02,6.76c-1.41,6.57-2.66,13.18-4.03,20.07
	C432.31,223.48,437.66,222.84,443.68,222.11z M261.67,270.5c-0.5,1.74-1.19,3.28-1.35,4.88c-0.28,2.8,0.18,5.73-0.42,8.43
	c-1.44,6.42-3.32,12.73-5.13,19.5c4.21,0.97,8.2,1.9,12.3,2.84c0.27-0.85,0.47-1.36,0.58-1.88c0.98-4.61,1.95-9.23,2.92-13.84
	c0.97-4.59,2.14-9.15,2.78-13.79c0.16-1.12-1.14-3.17-2.23-3.61C268.22,271.88,265.05,271.35,261.67,270.5z M487.6,231.79
	c-0.43-0.05-0.87-0.09-1.3-0.14c-1.05,3.56-2.06,7.13-3.16,10.67c-1.15,3.73-1.99,7.3-0.13,11.21c1.25,2.63,1.01,5.6-1.83,8.2
	c0-2.53,0-4.61,0-6.69c-0.39-0.04-0.78-0.08-1.17-0.13c-0.51,2.64-1.03,5.28-1.65,8.49c4.92-1.06,8.93-1.93,13.19-2.85
	c-0.41-1.46-0.81-2.45-0.94-3.47c-0.57-4.38-0.85-8.7-3.61-12.62c-1.13-1.6-0.58-4.52-0.46-6.82
	C486.63,235.67,487.22,233.74,487.6,231.79z M227.22,297.14c2.75-7.75-3.87-11.92-4.44-18.44c-2.55,2.15-4.77,3.64-6.44,5.6
	c-0.84,0.98-1.39,3.67-0.84,4.13C219.14,291.49,223.11,294.16,227.22,297.14z M353.57,317.76c-0.42-0.09-0.84-0.17-1.25-0.26
	c-0.69,7.08-1.37,14.16-2.06,21.25C354.63,332.15,356.2,325.22,353.57,317.76z M410.8,246.29c-0.39-0.03-0.77-0.07-1.16-0.1
	c-0.35,2.23-0.73,4.46-0.92,6.71c-0.01,0.09,1.8,0.33,3.04,0.55C411.39,250.66,411.1,248.48,410.8,246.29z M118.15,338.45
	c0.28,0.5,0.55,0.99,0.83,1.49c2.06-0.45,4.12-0.89,6.19-1.34c-0.67-1.36-1.68-2.32-2.43-2.15
	C121.14,336.8,119.67,337.75,118.15,338.45z"/>
<path class="st0" d="M420.26,330.01c-6.02,0.73-11.37,1.37-17.76,2.14c1.37-6.9,2.62-13.5,4.03-20.07c0.49-2.3,1.84-4.47,2.02-6.76
	c0.55-7.06,5.1-10,11.71-11.81C420.26,305.74,420.26,317.82,420.26,330.01z"/>
<path class="st0" d="M387.38,354.19c0.29,2.19,0.58,4.37,0.96,7.16c-1.24-0.22-3.05-0.46-3.04-0.55c0.19-2.25,0.57-4.48,0.92-6.71
	C386.61,354.12,387,354.15,387.38,354.19z"/>
</svg>
